HIERARCHY
ROOT hip
{
  OFFSET 0 0 0
  CHANNELS 6 Xposition Yposition Zposition Zrotation Yrotation Xrotation
  JOINT abdomen
  {
    OFFSET 0 20.6881 -0.73152
    CHANNELS 3 Zrotation Xrotation Yrotation
    JOINT chest
    {
      OFFSET 0 11.7043 -0.48768
      CHANNELS 3 Zrotation Xrotation Yrotation
      JOINT neck
      {
        OFFSET 0 22.1894 -2.19456
        CHANNELS 3 Zrotation Xrotation Yrotation
        JOINT head
        {
          OFFSET -0.24384 7.07133 1.2192
          CHANNELS 3 Zrotation Xrotation Yrotation
          JOINT leftEye
          {
            OFFSET 4.14528 8.04674 8.04672
            CHANNELS 3 Zrotation Xrotation Yrotation
            End Site
            {
              OFFSET 1 0 0
            }
          }
          JOINT rightEye
          {
            OFFSET -3.6576 8.04674 8.04672
            CHANNELS 3 Zrotation Xrotation Yrotation
            End Site
            {
              OFFSET 1 0 0
            }
          }
        }
      }
      JOINT rCollar
      {
        OFFSET -2.68224 19.2634 -4.8768
        CHANNELS 3 Zrotation Xrotation Yrotation
        JOINT rShldr
        {
          OFFSET -8.77824 -1.95073 1.46304
          CHANNELS 3 Zrotation Xrotation Yrotation
          JOINT rForeArm
          {
            OFFSET -28.1742 -1.7115 0.48768
            CHANNELS 3 Zrotation Xrotation Yrotation
            JOINT rHand
            {
              OFFSET -22.5879 0.773209 7.07136
              CHANNELS 3 Zrotation Xrotation Yrotation
              JOINT rThumb1
              {
                OFFSET -1.2192 -0.487915 3.41376
                CHANNELS 3 Zrotation Xrotation Yrotation
                JOINT rThumb2
                {
                  OFFSET -3.37035 -0.52449 3.41376
                  CHANNELS 3 Zrotation Xrotation Yrotation
                  End Site
                  {
                    OFFSET -1.78271 -1.18214 1.43049
                  }
                }
              }
              JOINT rIndex1
              {
                OFFSET -7.75947 0.938293 5.60832
                CHANNELS 3 Zrotation Xrotation Yrotation
                JOINT rIndex2
                {
                  OFFSET -2.54057 -0.884171 1.56538
                  CHANNELS 3 Zrotation Xrotation Yrotation
                  End Site
                  {
                    OFFSET -1.62519 -0.234802 1.16502
                  }
                }
              }
              JOINT rMid1
              {
                OFFSET -8.24714 1.18213 3.41376
                CHANNELS 3 Zrotation Xrotation Yrotation
                JOINT rMid2
                {
                  OFFSET -3.10165 -0.590103 1.0647
                  CHANNELS 3 Zrotation Xrotation Yrotation
                  End Site
                  {
                    OFFSET -2.48547 -0.328903 0.83742
                  }
                }
              }
              JOINT rRing1
              {
                OFFSET -8.82822 0.546677 1.51678
                CHANNELS 3 Zrotation Xrotation Yrotation
                JOINT rRing2
                {
                  OFFSET -2.60934 -0.819778 -0.0198488
                  CHANNELS 3 Zrotation Xrotation Yrotation
                  End Site
                  {
                    OFFSET -2.33842 -0.294052 0.168128
                  }
                }
              }
              JOINT rPinky1
              {
                OFFSET -8.27202 -0.0477905 -0.4584
                CHANNELS 3 Zrotation Xrotation Yrotation
                JOINT rPinky2
                {
                  OFFSET -1.82734 -0.647385 -0.700984
                  CHANNELS 3 Zrotation Xrotation Yrotation
                  End Site
                  {
                    OFFSET -1.69225 -0.51767 -0.607171
                  }
                }
              }
            }
          }
        }
      }
      JOINT lCollar
      {
        OFFSET 2.68224 19.2634 -4.8768
        CHANNELS 3 Zrotation Xrotation Yrotation
        JOINT lShldr
        {
          OFFSET 8.77824 -1.95073 1.46304
          CHANNELS 3 Zrotation Xrotation Yrotation
          JOINT lForeArm
          {
            OFFSET 28.1742 -1.7115 0.48768
            CHANNELS 3 Zrotation Xrotation Yrotation
            JOINT lHand
            {
              OFFSET 22.5879 0.773209 7.07136
              CHANNELS 3 Zrotation Xrotation Yrotation
              JOINT lThumb1
              {
                OFFSET 1.2192 -0.487915 3.41376
                CHANNELS 3 Zrotation Xrotation Yrotation
                JOINT lThumb2
                {
                  OFFSET 3.37035 -0.52449 3.41376
                  CHANNELS 3 Zrotation Xrotation Yrotation
                  End Site
                  {
                    OFFSET 1.78271 -1.18214 1.43049
                  }
                }
              }
              JOINT lIndex1
              {
                OFFSET 7.75947 0.938293 5.60832
                CHANNELS 3 Zrotation Xrotation Yrotation
                JOINT lIndex2
                {
                  OFFSET 2.54057 -0.884171 1.56538
                  CHANNELS 3 Zrotation Xrotation Yrotation
                  End Site
                  {
                    OFFSET 1.62519 -0.234802 1.16502
                  }
                }
              }
              JOINT lMid1
              {
                OFFSET 8.24714 1.18213 3.41376
                CHANNELS 3 Zrotation Xrotation Yrotation
                JOINT lMid2
                {
                  OFFSET 3.10165 -0.590103 1.0647
                  CHANNELS 3 Zrotation Xrotation Yrotation
                  End Site
                  {
                    OFFSET 2.48547 -0.328903 0.83742
                  }
                }
              }
              JOINT lRing1
              {
                OFFSET 8.82822 0.546677 1.51678
                CHANNELS 3 Zrotation Xrotation Yrotation
                JOINT lRing2
                {
                  OFFSET 2.60934 -0.819778 -0.0198488
                  CHANNELS 3 Zrotation Xrotation Yrotation
                  End Site
                  {
                    OFFSET 2.33842 -0.294052 0.168128
                  }
                }
              }
              JOINT lPinky1
              {
                OFFSET 8.27202 -0.0477905 -0.4584
                CHANNELS 3 Zrotation Xrotation Yrotation
                JOINT lPinky2
                {
                  OFFSET 1.82734 -0.647385 -0.700984
                  CHANNELS 3 Zrotation Xrotation Yrotation
                  End Site
                  {
                    OFFSET 1.69225 -0.51767 -0.607171
                  }
                }
              }
            }
          }
        }
      }
    }
  }
  JOINT rButtock
  {
    OFFSET -8.77824 4.35084 1.2192
    CHANNELS 3 Zrotation Xrotation Yrotation
    JOINT rThigh
    {
      OFFSET 0 -1.70687 -2.19456
      CHANNELS 3 Zrotation Xrotation Yrotation
      JOINT rShin
      {
        OFFSET 0 -36.8199 0.73152
        CHANNELS 3 Zrotation Xrotation Yrotation
        JOINT rFoot
        {
          OFFSET 0.73152 -45.1104 -5.12064
          CHANNELS 3 Zrotation Xrotation Yrotation
          End Site
          {
            OFFSET -1.1221 -3.69964 12.103
          }
        }
      }
    }
  }
  JOINT lButtock
  {
    OFFSET 8.77824 4.35084 1.2192
    CHANNELS 3 Zrotation Xrotation Yrotation
    JOINT lThigh
    {
      OFFSET 0 -1.70687 -2.19456
      CHANNELS 3 Zrotation Xrotation Yrotation
      JOINT lShin
      {
        OFFSET 0 -36.8199 0.73152
        CHANNELS 3 Zrotation Xrotation Yrotation
        JOINT lFoot
        {
          OFFSET -0.73152 -45.1104 -5.12064
          CHANNELS 3 Zrotation Xrotation Yrotation
          End Site
          {
            OFFSET 1.1221 -3.69964 12.103
          }
        }
      }
    }
  }
}
MOTION
Frames:	7
Frame Time:	0.03333
-27.0109 47.047 251.4247 167.814973 -69.965395 -162.321635 -10.837803 12.98862 -153.331498 3.347904 1.406843 166.626846 -11.339183 31.704688 -111.25411 28.652082 23.726334 148.718283 -19.644136 -14.713501 73.427724 11.112802 -0.293023 -3.011393 -74.129303 64.066545 73.51051 -37.51108 26.892237 88.155062 163.254886 -62.242619 -97.237397 -7.302273 35.865394 -0.063826 -9.595135 21.105109 8.085522 -47.107735 10.722304 53.459559 -148.420252 -14.179747 137.04292 -147.316568 63.20346 125.02499 -156.693527 14.821243 142.359388 -5.355987 -12.202382 -7.02143 -24.763564 -22.262856 -9.478108 -134.003303 -43.104095 176.545143 -28.663026 12.019523 -1.183261 -127.079802 30.380602 -167.732142 4.009666 7.322284 -0.963233 106.572805 -5.540898 -153.377723 5.402768 15.770201 144.923192 170.890306 -18.056217 -146.804333 137.216274 2.037563 -81.704744 -25.275553 -21.293206 -30.836841 76.384657 36.548303 -61.586582 177.203086 -32.411456 -96.448124 170.729752 -50.214432 -137.54157 -5.940402 10.938123 -11.075251 99.771291 -57.216547 111.424332 -90.310549 65.609507 50.217459 -1.16407 30.526828 3.198679 7.958699 52.766024 -62.776339 147.693676 64.949506 15.008646 155.636691 2.410256 86.841626 93.159105 -10.394821 15.665205 -120.257026 -53.271535 165.845158 17.498728 -3.818241 11.753194 13.089696 -47.716326 19.984205 46.884082 72.144086 -0.701592 175.019774 -23.046988 31.943167
-27.2553 46.874700000000004 251.8246 169.48058 -70.409557 -163.961832 -9.544318 15.007647 -92.652277 5.237429 -2.876529 105.738626 -12.525233 29.953272 -95.915588 31.812665 16.859206 135.335527 -29.171945 -21.098007 71.178244 11.792951 -0.787458 -7.613559 -164.471261 -26.687962 161.122771 144.429012 -65.257569 -172.640377 -52.621175 -66.545493 48.961185 2.298538 2.834483 0.210345 0.116564 14.728538 3.814062 -31.535411 14.085043 39.95086 -149.754951 -27.647254 139.15691 -133.634602 67.306993 115.980985 -1.297533 -1.419441 -5.370206 92.230728 -67.491418 55.354084 -22.40237 -15.351688 -6.904111 -132.708926 18.770256 165.052805 172.990592 37.318426 -144.607785 -164.202086 -2.622537 -140.814378 14.290079 40.587554 -13.08407 91.677782 14.214629 -120.096968 150.647703 1.030374 62.729907 9.45853 -31.17362 8.20422 146.02865 -4.227335 -82.805129 -26.367418 -26.482789 -35.200956 170.477908 -37.772994 -112.924674 9.312536 4.562584 3.428243 -18.142514 -25.433209 -0.037378 175.05903 -15.814865 -138.775547 132.007587 -44.813507 142.534677 -75.707975 53.21348 58.241715 132.499263 -24.492444 109.878505 -172.366256 32.876853 104.082817 166.816149 65.812807 1.665753 150.508662 0.79994 -88.550201 -94.530292 11.313247 -149.826199 99.095098 70.76238 165.261771 62.936009 25.520624 49.323021 -72.145432 -28.127098 -82.453163 -79.979289 33.587249 -10.923803 175.254919 40.548343 -98.56179
-27.5321 46.7356 252.2819 170.972066 -70.581289 -165.471658 -11.353676 17.51533 -15.638853 1.466591 -7.869646 28.930544 -13.019024 28.359437 -82.746768 33.230335 10.241559 124.302327 -35.964437 -23.650699 65.649204 11.920792 -1.314314 -12.53883 -0.553192 -17.424965 1.894672 75.862675 39.694326 -27.021575 9.503681 1.427249 103.158446 -7.451431 30.114633 0.895946 35.13726 -19.383139 -0.657261 -132.504832 -30.18401 117.75698 18.765775 -70.759658 -27.494468 -30.928338 59.172238 41.049472 -178.924567 -76.09915 150.152584 -136.292942 55.705668 137.693349 -91.377582 -70.992488 -89.184523 -138.589438 -14.235927 -168.335722 165.503205 77.877005 -152.536545 -141.653171 -43.766365 -136.765773 76.921208 69.569856 -77.741741 106.381991 21.282935 -89.222921 178.986522 7.371403 65.564601 19.191223 5.278259 0.200248 -0.627842 12.317621 -11.156499 101.091936 -73.014057 164.790539 164.501021 -30.269023 -112.761604 -0.826417 -12.498168 -1.53096 -105.464633 -79.46169 -68.608287 153.598348 11.356021 -136.714035 149.892188 66.988766 -162.821351 -130.96465 -82.89388 -142.418127 104.775854 -37.111833 85.084054 134.110875 18.35577 111.684554 -151.676477 61.776712 -22.638837 131.817803 -8.679114 171.442672 114.69657 -69.379698 161.898384 -145.638987 54.462609 -119.051227 179.276134 81.425001 1.001751 -148.6912 20.533961 -8.268965 12.279692 82.235433 -115.121086 84.734696 -50.868545 162.41897
-27.8001 46.5685 252.737 172.400435 -70.869098 -166.917795 -10.769622 13.231755 -154.700503 2.184863 3.392974 167.646706 -2.979964 37.744514 -162.838768 9.653238 40.667716 -157.897894 -40.79675 -23.131122 57.649688 11.514491 -1.761519 -17.339314 7.805511 -57.605078 -1.52753 89.529829 44.42365 -70.630566 -71.957131 -26.64232 88.918601 30.294215 -54.006539 19.307443 177.994162 -32.933143 85.195542 -24.70076 -25.432148 -15.93669 -6.764238 23.215618 -2.660539 27.734686 -15.203884 16.533635 -170.26179 -58.792992 155.241747 7.798575 18.458117 -11.982718 -134.352245 65.419236 138.145598 -168.518199 2.619949 169.744263 -158.210851 -26.925536 -128.934937 -26.285564 -21.187944 -20.614182 156.032706 5.205365 -161.36514 49.866071 -6.27497 2.56024 -13.567958 4.016144 151.146697 165.1251 5.261292 -140.748817 -7.39957 6.598453 -8.534681 135.177238 -7.944766 -132.536457 -43.637465 -51.049352 -11.47092 174.918259 -52.556219 -133.396387 23.962361 45.886239 -24.927464 -124.725952 -75.857397 -96.622191 157.265315 11.423226 175.039197 -160.820227 43.250089 165.373748 148.955509 -7.925974 120.51356 158.08458 0.802368 108.187744 -40.212529 13.811508 -15.615515 -2.00823 -69.479143 -177.309066 -98.323256 -53.085781 -167.960471 -39.47224 -15.591336 -118.43157 -178.291465 81.788774 -1.851804 -147.76467 19.308885 -52.313525 -79.515878 47.816439 -18.748945 3.083163 75.55049 93.142434
-28.0248 46.3673 253.1491 173.868784 -71.206292 -168.357402 -9.023993 15.002018 -102.952434 6.233752 -0.014955 115.543755 8.95372 31.621594 117.557792 -29.052033 22.836047 -72.050541 -43.686238 -20.791333 49.18467 10.56408 -2.032607 -21.724018 -166.454361 -30.108719 160.45181 -45.653347 13.14673 -1.91774 2.653951 -17.743174 -137.438345 168.632887 -19.564387 143.809263 -5.185046 18.802441 5.050784 -130.106925 -16.911713 86.486546 -123.329059 31.555202 111.855754 12.845643 -45.303779 -8.843238 4.858144 -36.549494 -12.604019 1.039788 34.064327 15.791212 -20.13161 -43.267543 -14.779491 -143.469567 21.021214 172.461776 -18.894128 59.250453 24.856499 8.293933 -15.256903 2.928217 2.235045 5.324327 0.410736 108.986254 -14.275246 -156.566158 8.864225 12.334028 147.232718 173.670277 -22.708931 -146.969773 168.927117 -18.344951 -82.105202 162.268792 -12.312823 -61.406373 -54.047542 -56.449954 -17.385521 166.372929 10.898352 -129.543937 151.486162 4.175983 -139.860123 4.459203 16.019879 -0.112966 149.056324 -31.802813 160.487012 48.254401 -46.517865 66.773722 166.915161 19.489752 129.892819 140.160668 -32.560229 101.306864 12.063953 12.835641 14.404365 -92.315361 -36.775942 -2.380492 94.070394 28.008632 -179.697061 173.895364 -27.936968 -83.034421 161.309889 81.739198 15.944776 -146.083767 17.10283 62.983235 84.241319 14.506462 171.706587 84.316239 -53.324228 161.979117
-28.1965 46.1445 253.4955 175.27543 -71.59089 -169.732061 -11.303216 13.232228 172.293735 -2.256672 4.297364 -159.198675 -2.828395 38.734369 -165.161918 8.401133 42.376566 -155.553039 -44.716098 -17.53147 41.100645 9.006738 -1.995072 -24.932296 1.621306 -30.018257 0.66961 -161.230432 47.4294 -137.006103 93.440023 71.868737 128.346567 176.719463 3.11708 146.029424 -173.542286 -25.526683 89.005513 -164.976186 -35.475561 119.128374 11.036557 -18.647037 -14.429878 -0.653726 26.003438 17.845761 -3.507793 12.015198 -5.542781 -134.761499 22.687078 118.754482 -15.349012 -40.571658 -10.72674 15.776553 30.248461 1.872719 -16.973205 44.465002 22.551364 -82.50517 -53.132 -93.810155 156.88708 -5.496659 -163.991637 -142.856054 -17.689249 169.515395 153.978571 -4.579652 -27.017233 177.605249 -36.976821 -148.76613 14.326777 18.750733 -14.477751 10.548395 30.725115 -2.941601 23.755308 19.367086 -22.269043 68.622795 66.263914 -71.956873 159.083199 -15.94308 -143.505488 5.128537 18.372307 1.171539 138.563714 -50.883832 147.817143 -52.626875 53.590552 45.774981 -140.144499 70.579012 109.160779 21.565987 0.430037 -17.922701 29.550304 17.816968 23.327047 -108.608137 -23.895303 25.356569 99.232971 -6.798671 61.632072 152.215418 16.837298 157.271189 55.591169 20.281308 47.391398 -63.681511 -37.127743 -94.587467 -85.059561 21.015005 -15.341237 68.73651 -47.959862 146.352657
-28.320600000000002 45.9157 253.7681 176.610307 -72.010497 -171.032491 -11.11867 17.88081 14.523478 -0.225007 -9.694923 -1.465149 -11.767469 23.701366 -44.211705 29.267885 -10.044422 90.060889 -44.140257 -14.115286 33.9605 6.855993 -1.610544 -26.410594 1.799008 -31.332701 0.422265 -175.078504 53.683077 -127.992316 -158.463418 59.74568 24.312611 166.500198 -27.636195 142.58224 -9.887487 21.639781 6.50563 -21.985159 -14.165844 20.219429 -76.112685 50.721024 66.672379 -171.442371 -0.432532 108.098043 -9.815369 32.64291 0.655 13.505717 -16.817102 17.546711 -14.641454 -50.221171 -13.530689 14.550774 -27.244762 -6.603679 -17.369302 3.4166 11.352894 36.330699 49.887393 -5.617221 -1.470206 -27.983864 7.491906 106.533795 -1.517664 173.593481 -175.892572 -40.29927 69.486158 19.206971 8.907025 -0.952791 168.291256 -15.770297 -83.634654 160.832112 -9.727626 -58.612161 153.501336 -18.068954 -111.637227 2.648691 -1.269578 -17.862264 156.19824 -5.837506 -142.835298 166.41201 4.417229 -146.595274 16.570895 -30.219923 14.598925 -36.1145 -36.53055 7.852236 157.777983 5.127106 126.644765 -104.988219 66.602755 86.685812 123.807676 61.991173 26.71524 169.768852 7.677813 45.755989 94.352477 20.692614 6.842544 -47.871218 -41.284097 -122.117911 4.054609 -6.566665 3.816469 41.577123 -47.850499 -51.278669 -89.516297 5.4095 -40.501859 -132.312315 48.129997 -147.973411
